<svg width="74" height="60" viewBox="0 0 74 60" fill="none" xmlns="http://www.w3.org/2000/svg">
<path d="M28.967 5.29995C29.7413 4.521 30.6962 3.94543 31.7466 3.62442C32.797 3.30341 33.9104 3.24691 34.9879 3.45992C36.0654 3.67294 37.0736 4.14888 37.9228 4.84544C38.7721 5.54199 39.4361 6.43758 39.8558 7.45259C40.2755 8.4676 40.4379 9.57059 40.3286 10.6635C40.2192 11.7564 39.8416 12.8054 39.2292 13.7171C38.6168 14.6289 37.7886 15.3753 36.8182 15.8898C35.8478 16.4044 34.7653 16.6712 33.667 16.6666H3.66699M38.967 54.6999C39.7413 55.4789 40.6962 56.0545 41.7466 56.3755C42.797 56.6965 43.9104 56.753 44.9879 56.54C46.0654 56.327 47.0736 55.851 47.9228 55.1545C48.7721 54.4579 49.4361 53.5623 49.8558 52.5473C50.2754 51.5323 50.4379 50.4293 50.3286 49.3364C50.2192 48.2435 49.8416 47.1945 49.2292 46.2827C48.6168 45.371 47.7886 44.6246 46.8182 44.1101C45.8478 43.5955 44.7653 43.3287 43.667 43.3333H3.66699M56.1003 15.7666C57.0698 14.7996 58.2627 14.0863 59.5734 13.69C60.8842 13.2937 62.2724 13.2264 63.6153 13.4942C64.9582 13.7621 66.2144 14.3567 67.2728 15.2255C68.3312 16.0943 69.1592 17.2106 69.6836 18.4756C70.2079 19.7406 70.4125 21.1153 70.2791 22.4781C70.1458 23.8409 69.6787 25.1499 68.9191 26.2893C68.1595 27.4286 67.1308 28.3632 65.9241 29.0104C64.7173 29.6576 63.3697 29.9975 62.0003 29.9999H3.66699" stroke="white" stroke-width="6.66667" stroke-linecap="round" stroke-linejoin="round"/>
</svg>
